# xmcd CD database file
#
# Track frame offsets:
#	150
#	25355
#	48147
#
# Disc length: 866 seconds
#
# Revision: 0
# Processed by: cddbd v1.5.1PL0 Copyright (c) Steve Scherf et al.
# Submitted via: CDex 1.51
#
DISCID=1b036003
DTITLE=stereo fabrication of youth - 首都高ドライブ
DYEAR=2004
DGENRE=Rock
TTITLE0=首都高ドライブ
TTITLE1=首都高ドライブ(ver.2)
TTITLE2=sickness
EXTD=YEAR: 2004
EXTT0=
EXTT1=
EXTT2=
PLAYORDER=
